<?xml version="1.0" encoding="utf-8"?>
<svg width="32px" height="32px" xmlns="http://www.w3.org/2000/svg">
  <title>file_type_java</title>
  <path d="M 4.752 12.552 C 4.752 12.552 4.33 12.801 5.053 12.885 C 5.811 12.994 6.586 12.96 7.335 12.786 C 7.528 12.905 7.73 13.005 7.94 13.087 C 5.785 14.022 3.06 13.032 4.755 12.552" style="fill: rgb(83, 130, 161);"/>
  <path d="M 4.489 11.331 C 4.489 11.331 4.018 11.684 4.738 11.761 C 5.72 11.879 6.716 11.831 7.682 11.618 C 7.812 11.741 7.966 11.835 8.134 11.897 C 5.527 12.668 2.624 11.958 4.489 11.329" style="fill: rgb(83, 130, 161);"/>
  <path d="M 6.709 9.258 C 7.005 9.618 6.941 10.157 6.57 10.435 C 6.57 10.435 7.92 9.73 7.299 8.847 C 6.721 8.023 6.276 7.613 8.681 6.2 C 8.681 6.2 4.908 7.155 6.709 9.258" style="fill: rgb(255, 166, 0);"/>
  <path d="M 9.564 13.457 C 9.564 13.457 9.875 13.718 9.22 13.917 C 7.975 14.3 4.039 14.414 2.947 13.933 C 2.552 13.759 3.289 13.518 3.522 13.47 C 3.644 13.44 3.774 13.424 3.902 13.426 C 3.465 13.113 1.076 14.039 2.689 14.303 C 7.085 15.026 10.703 13.978 9.564 13.457" style="fill: rgb(83, 130, 161);"/>
  <path d="M 4.954 10.065 C 4.954 10.065 2.954 10.547 4.246 10.722 C 5.13 10.79 6.016 10.782 6.895 10.694 C 7.722 10.622 8.556 10.472 8.556 10.472 C 8.382 10.549 8.214 10.639 8.053 10.744 C 6.019 11.287 2.092 11.036 3.221 10.481 C 3.76 10.206 4.355 10.063 4.957 10.065" style="fill: rgb(83, 130, 161);"/>
  <path d="M 8.546 12.098 C 10.614 11.011 9.658 9.964 8.992 10.107 C 8.912 10.122 8.833 10.141 8.756 10.17 C 8.798 10.107 8.862 10.058 8.931 10.032 C 10.25 9.561 11.266 11.419 8.505 12.153 C 8.522 12.138 8.536 12.12 8.549 12.098" style="fill: rgb(83, 130, 161);"/>
  <path d="M 7.299 3.921 C 7.299 3.921 8.445 5.08 6.216 6.866 C 4.427 8.296 5.807 9.112 6.216 10.046 C 5.171 9.09 4.405 8.251 4.918 7.469 C 5.674 6.32 7.764 5.763 7.299 3.921" style="fill: rgb(255, 166, 0);"/>
  <path d="M 5.159 15.047 C 7.142 15.177 10.188 14.975 10.26 14.024 C 10.26 14.024 10.123 14.383 8.62 14.673 C 6.962 14.962 5.27 14.989 3.602 14.752 C 3.602 14.752 3.854 14.964 5.159 15.05" style="fill: rgb(83, 130, 161);"/>
  <g transform="matrix(0.110954, 0, 0, 0.089043, 15.632854, 4.798411)" style="">
    <rect x="83.21" y="-4.25" transform="matrix(0.81 0.5864 -0.5864 0.81 29.3356 -45.3518)" style="fill:#FAA522;" width="2.896" height="53.693"/>
    <path style="fill:#FFF8A5;" d="M70.437,114.778H43.358c-1.358,0-2.46,1.102-2.46,2.46c0,1.359,1.102,2.461,2.46,2.461h27.079 c1.358,0,2.461-1.102,2.461-2.461C72.898,115.88,71.795,114.778,70.437,114.778z"/>
    <rect x="54.457" y="61.918" style="fill:#FFF8A5;" width="4.882" height="55.321"/>
    <polygon style="fill:#FFF8A5;" points="95.667,16.631 56.897,66.025 18.127,16.631 &#9;"/>
    <polygon style="fill:#E32A27;" points="86.302,22.597 56.897,60.059 27.493,22.597 &#9;"/>
    <circle style="fill:#C0221F;" cx="44.288" cy="32.359" r="1.627"/>
    <circle style="fill:#C0221F;" cx="49.169" cy="38.597" r="3.254"/>
    <circle style="fill:#C0221F;" cx="60.287" cy="42.548" r="1.492"/>
    <circle style="fill:#C0221F;" cx="64.355" cy="37.783" r="2.576"/>
    <circle style="fill:#C0221F;" cx="69.507" cy="30.074" r="1.763"/>
    <circle style="fill:#C0221F;" cx="50.525" cy="27.207" r="2.867"/>
  </g>
  <g transform="matrix(1, 0, 0, 1, -13.163054, -31.083761)"/>
  <g transform="matrix(1, 0, 0, 1, -13.163054, -31.083761)"/>
  <g transform="matrix(1, 0, 0, 1, -13.163054, -31.083761)"/>
  <g transform="matrix(1, 0, 0, 1, -13.163054, -31.083761)"/>
  <g transform="matrix(1, 0, 0, 1, -13.163054, -31.083761)"/>
  <g transform="matrix(1, 0, 0, 1, -13.163054, -31.083761)"/>
  <g transform="matrix(1, 0, 0, 1, -13.163054, -31.083761)"/>
  <g transform="matrix(1, 0, 0, 1, -13.163054, -31.083761)"/>
  <g transform="matrix(1, 0, 0, 1, -13.163054, -31.083761)"/>
  <g transform="matrix(1, 0, 0, 1, -13.163054, -31.083761)"/>
  <g transform="matrix(1, 0, 0, 1, -13.163054, -31.083761)"/>
  <g transform="matrix(1, 0, 0, 1, -13.163054, -31.083761)"/>
  <g transform="matrix(1, 0, 0, 1, -13.163054, -31.083761)"/>
  <g transform="matrix(1, 0, 0, 1, -13.163054, -31.083761)"/>
  <g transform="matrix(1, 0, 0, 1, -13.163054, -31.083761)"/>
  <g transform="matrix(2.407274, 0, 0, 2.191127, 0.365102, 10.676189)" style="">
    <path d="M 3.317 6.133 C 3.325 6.135 3.332 6.135 3.339 6.135 C 3.397 6.135 3.449 6.104 3.459 6.06 C 3.586 5.542 4.006 5.081 4.581 4.827 C 4.64 4.802 4.659 4.746 4.625 4.703 C 4.59 4.66 4.515 4.645 4.457 4.671 C 3.821 4.951 3.358 5.458 3.219 6.028 C 3.206 6.077 3.251 6.125 3.317 6.133 Z" style="fill: rgb(209, 209, 209);"/>
    <path d="M 8.373 6.205 C 8.171 5.221 7.246 4.438 6.068 4.249 C 6.07 4.234 6.073 4.219 6.073 4.205 C 6.073 3.949 5.822 3.742 5.515 3.742 C 5.207 3.742 4.957 3.949 4.957 4.205 C 4.957 4.219 4.96 4.234 4.962 4.249 C 3.784 4.438 2.859 5.221 2.657 6.205 C 2.424 6.315 2.169 6.476 2.169 6.656 C 2.169 7.127 3.899 7.443 5.515 7.443 C 7.131 7.443 8.861 7.127 8.861 6.656 C 8.861 6.476 8.606 6.315 8.373 6.205 Z M 5.181 4.221 C 5.181 4.215 5.18 4.21 5.18 4.205 C 5.18 4.052 5.33 3.927 5.515 3.927 C 5.699 3.927 5.85 4.052 5.85 4.205 C 5.85 4.21 5.849 4.215 5.849 4.221 C 5.844 4.22 5.838 4.22 5.833 4.219 C 5.795 4.216 5.756 4.213 5.717 4.211 C 5.703 4.21 5.689 4.209 5.675 4.209 C 5.622 4.206 5.569 4.205 5.515 4.205 C 5.461 4.205 5.408 4.206 5.355 4.209 C 5.341 4.209 5.327 4.21 5.313 4.211 C 5.274 4.213 5.235 4.216 5.197 4.219 C 5.191 4.22 5.186 4.22 5.181 4.221 Z M 5.113 4.415 C 5.173 4.407 5.233 4.402 5.294 4.398 C 5.306 4.397 5.319 4.396 5.331 4.396 C 5.453 4.389 5.576 4.389 5.699 4.396 C 5.711 4.396 5.724 4.397 5.736 4.398 C 5.797 4.402 5.857 4.407 5.917 4.415 C 7.079 4.56 7.998 5.328 8.164 6.294 C 8.169 6.324 8.174 6.354 8.177 6.384 C 8.178 6.394 8.18 6.404 8.181 6.414 C 8.186 6.455 8.189 6.496 8.19 6.537 C 6.438 6.874 4.592 6.874 2.84 6.537 C 2.841 6.496 2.844 6.455 2.849 6.414 C 2.85 6.404 2.851 6.394 2.853 6.384 C 2.856 6.354 2.86 6.324 2.866 6.294 C 3.032 5.328 3.951 4.56 5.113 4.415 Z M 5.515 7.258 C 3.608 7.258 2.392 6.863 2.392 6.656 C 2.392 6.621 2.445 6.543 2.622 6.441 C 2.622 6.446 2.622 6.452 2.621 6.457 C 2.618 6.508 2.615 6.559 2.615 6.61 L 2.615 6.683 L 2.7 6.7 C 3.621 6.883 4.568 6.975 5.515 6.975 C 6.462 6.975 7.409 6.884 8.329 6.7 L 8.415 6.683 L 8.415 6.61 C 8.415 6.559 8.412 6.508 8.408 6.457 C 8.408 6.452 8.408 6.446 8.408 6.441 C 8.585 6.543 8.638 6.621 8.638 6.656 C 8.638 6.863 7.422 7.258 5.515 7.258 Z" style="fill: rgb(132, 132, 132);"/>
  </g>
  <g transform="matrix(1, 0, 0, 1, 4.93949, 5.082764)"/>
  <g transform="matrix(1, 0, 0, 1, 4.93949, 5.082764)"/>
  <g transform="matrix(1, 0, 0, 1, 4.93949, 5.082764)"/>
  <g transform="matrix(1, 0, 0, 1, 4.93949, 5.082764)"/>
  <g transform="matrix(1, 0, 0, 1, 4.93949, 5.082764)"/>
  <g transform="matrix(1, 0, 0, 1, 4.93949, 5.082764)"/>
  <g transform="matrix(1, 0, 0, 1, 4.93949, 5.082764)"/>
  <g transform="matrix(1, 0, 0, 1, 4.93949, 5.082764)"/>
  <g transform="matrix(1, 0, 0, 1, 4.93949, 5.082764)"/>
  <g transform="matrix(1, 0, 0, 1, 4.93949, 5.082764)"/>
  <g transform="matrix(1, 0, 0, 1, 4.93949, 5.082764)"/>
  <g transform="matrix(1, 0, 0, 1, 4.93949, 5.082764)"/>
  <g transform="matrix(1, 0, 0, 1, 4.93949, 5.082764)"/>
  <g transform="matrix(1, 0, 0, 1, 4.93949, 5.082764)"/>
  <g transform="matrix(1, 0, 0, 1, 4.93949, 5.082764)"/>
</svg>